<?xml version="1.0" standalone="no"?><!DOCTYPE svg PUBLIC "-//W3C//DTD SVG 1.1//EN" "http://www.w3.org/Graphics/SVG/1.1/DTD/svg11.dtd"><svg t="1698766505938" class="icon" viewBox="0 0 1024 1024" version="1.1" xmlns="http://www.w3.org/2000/svg" p-id="4091" width="16" height="16" xmlns:xlink="http://www.w3.org/1999/xlink"><path d="M778.62008734 238.486172c-56.640466 70.055313-144.582242 131.167394-144.582242 131.167394l8.943232 10.43377001c26.829694-19.377001 102.847162-78.998544 141.601164-126.69577901 38.754003-49.187773 73.03639-96.885007 84.960699-111.790393 13.414847-14.905386 20.86754-8.94323101 29.810771-4.47161499 17.886463 7.452693 26.829694-14.905386 5.962155-22.35807901-4.471616-1.490539-10.43377-2.981077-17.886463-2.981077-28.320233 2.981077-52.16885 56.640466-108.809316 126.695779z" fill="#D73E3E" p-id="4092"></path><path d="M646.19248869 357.46124573c-15.26311481-66.14016455 10.17540949-105.14590379 16.95901695-142.45574088-10.17540949 3.39180317-25.43852544 18.65491797-28.83032861 10.17541063-11.87131165-33.91803278-5.08770531-71.22786987-8.47950846-106.84180479-6.78360633 6.78360633-15.26311481 27.13442645-22.04672113 20.35082012-13.56721379-13.56721379-10.17540949-37.30983709-15.26311482-55.96475506-3.39180317 3.39180317-10.17540949 11.87131165-11.87131165 8.47950847-11.87131165-25.43852544-13.56721379-54.26885291-20.35082013-81.40328049-5.08770531 25.43852544-5.08770531 50.87704974-15.26311481 74.61967303-1.69590215 3.39180317-8.47950848-3.39180317-11.87131164-5.08770416-5.08770531 39.0057381 1.69590215 76.31557518-16.95901696 115.32131328-32.22213177-1.69590215-66.14016455-64.44426354-98.36229632-94.97049432 0 5.08770532 3.39180317 16.95901696-1.69590216 15.26311595-28.83032861-16.95901696-54.26885291-40.70164026-81.40327936-61.05246036 3.39180317 35.61393493 5.08770531 69.53196885 8.4795085 105.14590378-39.0057381-13.56721379-76.31557518-28.8303286-115.32131328-42.3975424 0 11.87131165 13.56721379 35.61393493 1.695901 37.30983708-27.13442645 6.78360633-54.26885291-11.87131165-81.40327936-18.65491796 0 6.78360633 8.47950848 18.65491797 1.69590101 20.35081897-15.26311481 3.39180317-32.22213176-5.08770531-47.48524658-8.47950733 0 5.08770532 1.69590215 11.87131165-3.39180316 13.56721266-25.43852544 3.39180317-52.57295189-1.69590215-79.70737835-1.69590102 25.43852544 18.65491797 54.26885291 33.91803278 76.31557518 55.96475392 3.39180317 3.39180317-5.08770531 8.47950848-8.47950846 11.87131279 16.95901696 10.17540949 40.70164025 13.56721379 52.57295188 30.52622961 5.08770531 6.78360633-10.17540949 11.87131165-16.95901696 16.95901696 35.61393493 15.26311481 72.92377202 23.74262329 105.14590381 45.78934442 6.78360633 5.08770531-13.56721379 13.56721379-16.95901699 15.26311482-3.39180317 3.39180317 111.92951011 5.08770531 150.93524824 45.78934556-74.61967302 57.66065607-122.10491961 15.26311481-184.85328216 22.04672114 5.08770531 3.39180317 18.65491797 10.17540949 11.87131165 11.87131164-23.74262329 8.47950848-49.18114873 5.08770531-72.92377088 8.47950849 5.08770531 3.39180317 20.35082013 10.17540949 15.26311481 11.87131163-16.95901696 6.78360633-37.30983709 3.39180317-55.96475506 5.08770533 16.95901696 6.78360633 37.30983709 11.87131165 52.57295189 22.04672113 3.39180317 1.69590215-3.39180317 6.78360633-6.78360746 10.17541064 18.65491797 1.69590215 55.96475506 18.65491797 55.96475505 39.0057381 0 15.2631148-55.96475506 37.30983709-83.0991815 55.96475505 1.69590215 1.69590215 8.47950848 5.08770531 6.78360747 6.78360633-11.87131165 10.17540949-28.83032861 15.26311481-42.39754241 23.74262329 13.56721379 8.47950848 40.70164026 18.65491797 39.0057381 27.13442645-1.69590216 16.95901696-27.13442646 44.09344341-40.70163911 64.44426354 3.39180317 0 13.56721379-1.69590215 13.56721266 1.69590214-5.08770531 13.56721379-16.95901696 23.74262329-25.4385243 35.61393494 3.39180317 0 13.56721379-3.39180317 11.87131164 0-10.17540949 22.04672114-27.13442645 40.70164025-40.70164025 59.35655823 23.74262329-5.08770531 47.48524658-13.56721379 71.22786988-15.26311481 3.39180317 0-3.39180317 6.78360633-5.08770533 10.17540949 13.56721379-3.39180317 28.83032861-10.17540949 42.3975424-10.1754095 5.08770532 0-1.69590215 8.47950848-3.3918043 11.87131164 25.43852544-5.08770531 59.35655822-16.95901696 76.31557518-13.56721379 8.47950848 1.69590215 6.78360633 30.52622962 10.17541063 47.48524658 13.56721379-10.17540949 23.74262329-23.74262329 39.0057381-30.52622961 3.39180317-1.69590215 3.39180317 5.08770531 5.08770532 8.47950848 27.13442646-18.65491797 67.8360667-62.74836139 83.0991815-57.66065721 18.65491797 6.78360633 20.35082013 49.18114873 15.26311481 66.14016569 3.39180317 0 10.17540949-5.08770531 11.87131167-1.69590216 5.08770531 18.65491796 1.69590215 37.30983709 1.69590099 55.96475506 8.47950848-16.95901696 13.56721379-37.30983709 25.43852544-49.18114873 5.08770531-5.08770531 3.39180317 11.87131165 5.08770532 18.65491912 11.87131165-22.04672114 18.65491797-45.78934443 35.61393493-64.44426356 3.39180317-5.08770531 5.08770531 10.17540949 6.78360633 15.26311483 30.52622962-54.26885291 8.47950848-113.62541113 89.88278784-162.80655987 22.04672114 50.87704974-16.95901696 157.71885454-13.56721265 157.71885455 3.39180317-1.69590215 18.65491796-16.95901696 20.35082012-10.17540949 8.47950848 37.30983709 1.69590215 76.31557518 3.39180316 113.62541113 6.78360633-3.39180317 16.95901696-15.26311481 22.04672115-8.47950848 10.17540949 16.95901696 5.08770531 40.70164025 8.47950847 59.35655822 5.08770531-1.69590216 11.87131165-6.78360633 13.56721379-3.39180317 11.87131165 28.8303286 15.26311481 61.05246037 23.7426233 93.27459215 10.17540949-25.43852544 15.26311481-50.87704974 28.83032861-74.61967303 1.69590215-3.39180317 8.47950848 1.69590215 13.56721266 3.39180316 3.39180317-15.26311481 0-33.91803278 10.17541062-47.48524658 3.39180317-5.08770531 11.87131165 6.78360633 18.65491797 8.47950734 5.08770531-27.13442645-3.39180317-59.35655822 13.56721379-83.0991815 6.78360633-10.17540949 23.74262329 10.17540949 35.61393494 15.26311594 1.69590215-40.70164026 1.69590215-81.4032805 3.39180316-123.80082176 32.22213176 15.26311481 62.74836139 30.52622962 94.97049316 47.48524656-8.47950848-32.22213177-22.04672114-64.44426354-27.13442646-98.36229744 0-5.08770532 10.17540949 3.39180317 13.56721266 3.39180429-16.95901696-42.39754127-62.74836139-96.66639531-50.87704973-127.19262493 44.09344341-3.39180317 74.61967303 18.65491797 113.62541113 28.83032748 0-5.08770532-5.08770531-13.56721379-1.69590102-13.56721265 25.43852544 0 49.18114873 10.17540949 74.61967304 15.26311481-22.04672115-16.95901696-47.48524658-28.83032861-67.83606672-49.18114873-3.39180317-3.39180317 8.47950848-5.08770531 11.87131166-8.47950849-15.2631148-11.87131165-39.0057381-16.95901696-45.78934444-33.91803278-3.39180317-8.47950848 18.65491797-8.47950848 27.13442646-11.87131164-32.22213176-15.26311481-69.53196885-23.74262329-94.97049316-47.48524658-6.78360633-6.78360633 13.56721379-15.26311481 20.35082012-22.04672228-37.30983709-8.47950848-83.09918151 1.69590215-139.06393658-39.0057381-1.69590215 1.69590215-5.08770531 3.39180317-6.78360744 5.08770532l167.89426516 145.84754289-174.67787149-133.97623125-20.35082013 390.05738325 6.78360634-383.27377691-217.07541278 152.63115036-16.95901696 179.76557684 0-169.59016735-235.73033075 142.45574087 225.55492126-154.32705251-139.06393657-64.4442624 156.02295353 50.87704974 215.37951061-154.32705137-418.88771072-161.11065885L624.14576755 362.54894989l-64.44426355-242.5139382L637.7129802 362.5489499s3.39180317-1.69590215 8.47950849-5.08770417z" fill="#D73E3E" p-id="4093"></path></svg>